<?xml version="1.0" encoding="utf-8"?>
<svg class="ionicon" viewBox="0 0 512 512" xmlns="http://www.w3.org/2000/svg">
  <path d="M 380.999 224.6 L 380.999 403.999 C 380.999 425.538 363.538 442.999 341.999 442.999 L 108 442.999 C 86.461 442.999 69 425.538 69 403.999 L 69 170 C 69 148.461 86.461 131 108 131 L 271.293 131" fill="none" stroke="#494C6B" stroke-linecap="round" stroke-linejoin="round" stroke-width="32"/>
  <path fill="#494C6B" d="M 455.04 58.118 C 449.03 51.515 438.723 51.267 432.401 57.572 L 420.341 69.575 C 417.297 72.621 417.297 77.557 420.341 80.602 L 431.397 91.639 C 434.446 94.702 439.405 94.702 442.454 91.639 L 454.212 79.939 C 460.16 74.002 460.715 64.33 455.04 58.118 Z M 395.955 93.95 L 219.949 269.645 C 218.882 270.707 218.106 272.027 217.697 273.476 L 209.556 297.724 C 208.722 300.538 211.246 303.199 214.099 302.515 C 214.165 302.499 214.23 302.482 214.294 302.462 L 238.523 294.322 C 239.972 293.912 241.292 293.136 242.355 292.069 L 418.049 116.043 C 421.432 112.624 421.432 107.119 418.049 103.7 L 408.348 93.95 C 404.923 90.534 399.38 90.534 395.955 93.95 Z"/>
</svg>